<?xml version="1.0" encoding="UTF-8"?>
<!DOCTYPE svg PUBLIC "-//W3C//DTD SVG 1.1//EN" "http://www.w3.org/Graphics/SVG/1.1/DTD/svg11.dtd">
<!-- Creator: CorelDRAW -->
<svg xmlns="http://www.w3.org/2000/svg" xml:space="preserve" width="31.5502mm" height="31.5502mm" version="1.1" style="shape-rendering:geometricPrecision; text-rendering:geometricPrecision; image-rendering:optimizeQuality; fill-rule:evenodd; clip-rule:evenodd"
viewBox="0 0 109.81 109.81"
 xmlns:xlink="http://www.w3.org/1999/xlink"
 xmlns:xodm="http://www.corel.com/coreldraw/odm/2003">
 <defs>
  <style type="text/css">
   <![CDATA[
    .fil1 {fill:none}
    .fil0 {fill:white}
   ]]>
  </style>
   <clipPath id="id0">
    <path d="M109.81 109.81l-109.81 0 0 -109.81 109.81 0 0 109.81z"/>
   </clipPath>
 </defs>
 <g id="Capa_x0020_1">
  <metadata id="CorelCorpID_0Corel-Layer"/>
  <g>
  </g>
  <g style="clip-path:url(#id0)">
   <g id="_3139178633328">
    <path class="fil0" d="M42.16 32.24c1.01,-0.11 2.04,-0.16 3.07,-0.16 13.87,0 25.56,9.67 29.14,22.87 0.29,-0.02 0.57,-0.03 0.86,-0.04 -0.12,-0 -0.24,-0 -0.35,-0l-0.1 0 0 -0 4.38 0 0.17 0 0 -0c5.44,-0.09 9.82,-4.53 9.82,-9.99 0,-5.52 -4.47,-9.99 -9.99,-9.99 -1.85,0 -3.59,0.51 -5.07,1.38 -0,-1.59 -0.25,-3.13 -0.69,-4.58 -2.22,-6.44 -8.34,-11.07 -15.54,-11.07 -7.38,0 -13.63,4.87 -15.7,11.57zm44.64 26.4c4.88,3.62 8.06,9.55 8.06,16.25 0,11.03 -8.62,19.98 -19.26,19.98 -0.24,0 -0.47,-0.01 -0.71,-0.01l0 0.01 -29.2 0 0 -0c-0.15,0 -0.3,0 -0.45,0 -16.72,0 -30.27,-14.05 -30.27,-31.39 0,-14 8.84,-25.86 21.04,-29.9 1.69,-10.55 10.83,-18.61 21.86,-18.61 9.46,0 17.53,5.93 20.7,14.28 0.2,-0.01 0.4,-0.01 0.6,-0.01 8.67,0 15.69,7.03 15.69,15.7 0,5.9 -3.25,11.03 -8.06,13.71zm-11.92 30.52l-29.2 0 -0.33 0 0 0 -0.13 0c-13.37,0 -24.56,-11.3 -24.56,-25.68 0,-14.38 11.19,-25.68 24.56,-25.68 11.34,0 21.12,8.13 23.82,19.38l0.01 -0c0.38,1.56 0.63,3.18 0.72,4.84 1.78,-0.89 3.76,-1.38 5.82,-1.38 7.29,0 13.56,6.19 13.56,14.27 0,8.02 -6.18,14.18 -13.4,14.27l0 0 -0.86 0z"/>
   </g>
  </g>
  <polygon class="fil1" points="109.81,109.81 -0,109.81 -0,0 109.81,0 "/>
 </g>
</svg>
