<?xml version="1.0" encoding="UTF-8"?>
<!DOCTYPE svg PUBLIC "-//W3C//DTD SVG 1.1//EN" "http://www.w3.org/Graphics/SVG/1.1/DTD/svg11.dtd">
<!-- Creator: CorelDRAW -->
<svg xmlns="http://www.w3.org/2000/svg" xml:space="preserve" width="31.5502mm" height="31.5502mm" version="1.1" style="shape-rendering:geometricPrecision; text-rendering:geometricPrecision; image-rendering:optimizeQuality; fill-rule:evenodd; clip-rule:evenodd"
viewBox="0 0 122.15 122.15"
 xmlns:xlink="http://www.w3.org/1999/xlink"
 xmlns:xodm="http://www.corel.com/coreldraw/odm/2003">
 <defs>
  <style type="text/css">
   <![CDATA[
    .fil1 {fill:none}
    .fil0 {fill:white;fill-rule:nonzero}
   ]]>
  </style>
   <clipPath id="id0">
    <path d="M122.15 122.15l-122.15 0 0 -122.15 122.15 0 0 122.15z"/>
   </clipPath>
      <clipPath id="id1">
       <path d="M7.41 114.74l107.34 0 0 -107.34 -107.34 0 0 107.34z"/>
      </clipPath>
      <clipPath id="id2">
       <path d="M122.15 122.15l-122.15 0 0 -122.15 122.15 0 0 122.15z"/>
      </clipPath>
 </defs>
 <g id="Capa_x0020_1">
  <metadata id="CorelCorpID_0Corel-Layer"/>
  <g>
  </g>
  <g style="clip-path:url(#id0)">
   <g id="_3139168260064">
    <g>
     <g filter="url(#filter0_ii_401_24)">
      <g>
      </g>
     </g>
     <g style="clip-path:url(#id1)">
      <g>
       <path class="fil0" d="M61.07 113.53l-28.46 -28.46c-5.63,-5.63 -9.46,-12.8 -11.02,-20.61 -1.55,-7.81 -0.76,-15.9 2.29,-23.26 3.05,-7.36 8.21,-13.64 14.83,-18.07 6.62,-4.42 14.4,-6.78 22.36,-6.78 7.96,0 15.74,2.36 22.36,6.78 6.62,4.42 11.78,10.71 14.83,18.07 3.05,7.36 3.84,15.45 2.29,23.26 -1.55,7.81 -5.39,14.98 -11.02,20.61l-28.46 28.46zm22.14 -34.79c4.38,-4.38 7.36,-9.96 8.57,-16.03 1.21,-6.07 0.59,-12.37 -1.78,-18.09 -2.37,-5.72 -6.38,-10.61 -11.53,-14.05 -5.15,-3.44 -11.2,-5.28 -17.39,-5.28 -6.19,0 -12.24,1.84 -17.39,5.28 -5.15,3.44 -9.16,8.33 -11.53,14.05 -2.37,5.72 -2.99,12.01 -1.78,18.09 1.21,6.07 4.19,11.65 8.57,16.03l22.14 22.14 22.14 -22.14zm-22.14 -13.19c-2.37,0 -4.65,-0.94 -6.33,-2.62 -1.68,-1.68 -2.62,-3.95 -2.62,-6.33 0,-2.37 0.94,-4.65 2.62,-6.32 1.68,-1.68 3.95,-2.62 6.33,-2.62 2.37,0 4.65,0.94 6.33,2.62 1.68,1.68 2.62,3.95 2.62,6.32 0,2.37 -0.94,4.65 -2.62,6.33 -1.68,1.68 -3.95,2.62 -6.33,2.62z" filter="url(#filter1_dii_401_24)"/>
      </g>
     </g>
     <g style="clip-path:url(#id2)">
      <polygon class="fil1" points="7.41,114.74 114.74,114.74 114.74,7.41 7.41,7.41 "/>
     </g>
    </g>
   </g>
  </g>
  <polygon class="fil1" points="122.15,122.15 -0,122.15 -0,0 122.15,0 "/>
 </g>
</svg>
