<?xml version="1.0" encoding="UTF-8"?>
<!DOCTYPE svg PUBLIC "-//W3C//DTD SVG 1.1//EN" "http://www.w3.org/Graphics/SVG/1.1/DTD/svg11.dtd">
<!-- Creator: CorelDRAW -->
<svg xmlns="http://www.w3.org/2000/svg" xml:space="preserve" width="31.5502mm" height="31.5502mm" version="1.1" style="shape-rendering:geometricPrecision; text-rendering:geometricPrecision; image-rendering:optimizeQuality; fill-rule:evenodd; clip-rule:evenodd"
viewBox="0 0 184.87 184.87"
 xmlns:xlink="http://www.w3.org/1999/xlink"
 xmlns:xodm="http://www.corel.com/coreldraw/odm/2003">
 <defs>
  <style type="text/css">
   <![CDATA[
    .fil1 {fill:none}
    .fil0 {fill:white;fill-rule:nonzero}
   ]]>
  </style>
   <clipPath id="id0">
    <path d="M184.87 184.87l-184.87 0 0 -184.87 184.87 0 0 184.87z"/>
   </clipPath>
 </defs>
 <g id="Capa_x0020_1">
  <metadata id="CorelCorpID_0Corel-Layer"/>
  <g>
  </g>
  <g style="clip-path:url(#id0)">
   <g id="_3138938223744">
    <g>
     <path class="fil0" d="M25.63 80.76l63.57 0c7.69,0.06 15.13,-2.73 20.89,-7.82 5.76,-5.09 9.44,-12.14 10.33,-19.78 0.85,-8.58 -1.99,-17.12 -7.82,-23.47 -5.79,-6.36 -13.98,-9.98 -22.58,-10l-17.15 0c-2.76,0 -5.31,1.47 -6.69,3.86 -1.38,2.39 -1.38,5.34 0,7.72 1.38,2.39 3.93,3.86 6.69,3.86l17.15 0c4.35,0.01 8.48,1.88 11.34,5.15 2.86,3.27 4.18,7.62 3.61,11.93 -0.57,3.7 -2.46,7.07 -5.33,9.47 -2.86,2.41 -6.5,3.69 -10.25,3.62l-63.78 0c-2.76,0 -5.31,1.47 -6.69,3.86 -1.38,2.39 -1.38,5.34 0,7.72 1.38,2.39 3.93,3.86 6.69,3.86l0 0.01z"/>
     <path class="fil0" d="M166.81 131.72c-0.89,-7.64 -4.56,-14.68 -10.32,-19.78 -5.76,-5.09 -13.2,-7.88 -20.89,-7.83l-53.1 0c-2.76,0 -5.31,1.47 -6.69,3.86 -1.38,2.39 -1.38,5.33 0,7.72 1.38,2.39 3.93,3.86 6.69,3.86l53.31 0c3.74,-0.08 7.38,1.21 10.25,3.62 2.86,2.41 4.75,5.77 5.32,9.47 0.57,4.31 -0.75,8.66 -3.61,11.93 -2.87,3.27 -7,5.15 -11.35,5.16l-17.16 0c-2.76,0 -5.31,1.47 -6.69,3.86 -1.38,2.39 -1.38,5.33 0,7.72 1.38,2.39 3.93,3.86 6.69,3.86l17.15 0c8.6,-0.01 16.8,-3.64 22.59,-9.99 5.83,-6.35 8.67,-14.89 7.81,-23.47l0 0z"/>
     <path class="fil0" d="M65.47 111.84c0,-2.05 -0.81,-4.01 -2.26,-5.46 -1.45,-1.45 -3.41,-2.27 -5.46,-2.27l-32.12 0c-2.76,0 -5.31,1.47 -6.69,3.86 -1.38,2.39 -1.38,5.33 0,7.72 1.38,2.39 3.93,3.86 6.69,3.86l32.12 0c2.05,-0 4.01,-0.82 5.45,-2.26 1.45,-1.45 2.27,-3.4 2.27,-5.45l0 0z"/>
     <path class="fil0" d="M123.11 85.75c0.66,0 1.29,-0.26 1.76,-0.73l5.24 -5.24 0 0c7.19,1.43 14.61,-0.97 19.62,-6.32 5,-5.36 6.88,-12.92 4.97,-20.01 -0.23,-0.86 -0.9,-1.53 -1.76,-1.76 -7.08,-1.91 -14.65,-0.03 -20,4.97 -5.36,5 -7.76,12.42 -6.33,19.62l-5.24 5.22c-0.71,0.71 -0.92,1.78 -0.54,2.71 0.38,0.93 1.29,1.53 2.29,1.54l0 0z"/>
     <path class="fil0" d="M69.5 130.02l-5.23 -5.23c-0.98,-0.94 -2.53,-0.93 -3.48,0.03 -0.96,0.96 -0.97,2.51 -0.03,3.48l5.23 5.24 0 0c-1.35,6.93 0.82,14.07 5.79,19.08 5.17,5.11 16.72,9.45 22.31,3.73l0 0c1.91,-7.08 0.03,-14.64 -4.97,-20 -5,-5.36 -12.42,-7.76 -19.61,-6.33l0 0.01z"/>
    </g>
   </g>
  </g>
  <polygon class="fil1" points="184.87,184.87 -0,184.87 -0,0 184.87,0 "/>
 </g>
</svg>
