<?xml version="1.0" encoding="UTF-8"?>
<!DOCTYPE svg PUBLIC "-//W3C//DTD SVG 1.1//EN" "http://www.w3.org/Graphics/SVG/1.1/DTD/svg11.dtd">
<!-- Creator: CorelDRAW -->
<svg xmlns="http://www.w3.org/2000/svg" xml:space="preserve" width="31.5502mm" height="31.5502mm" version="1.1" style="shape-rendering:geometricPrecision; text-rendering:geometricPrecision; image-rendering:optimizeQuality; fill-rule:evenodd; clip-rule:evenodd"
viewBox="0 0 212.94 212.94"
 xmlns:xlink="http://www.w3.org/1999/xlink"
 xmlns:xodm="http://www.corel.com/coreldraw/odm/2003">
 <defs>
  <style type="text/css">
   <![CDATA[
    .fil1 {fill:none}
    .fil0 {fill:white;fill-rule:nonzero}
   ]]>
  </style>
   <clipPath id="id0">
    <path d="M212.94 212.94l-212.94 0 0 -212.94 212.94 0 0 212.94z"/>
   </clipPath>
 </defs>
 <g id="Capa_x0020_1">
  <metadata id="CorelCorpID_0Corel-Layer"/>
  <g>
  </g>
  <g style="clip-path:url(#id0)">
   <g id="_3138939706656">
    <g>
     <path class="fil0" d="M108.41 156.78c-2.76,-2.41 -5.02,-7.37 -5.02,-11.04l0 -127.26c0,-3.66 -2.99,-6.65 -6.65,-6.65l-8.54 0c-3.66,0 -6.65,3 -6.65,6.65l-0 127.25c0,3.67 -2.35,8.52 -5.22,10.8 0,0 -12.26,9.71 -12.26,18.9 0,14.18 12.48,25.67 27.87,25.67 15.39,0 27.87,-11.49 27.87,-25.67 0,-8.74 -11.38,-18.66 -11.38,-18.66l0 0z"/>
     <path class="fil0" d="M100.63 48.81c0,3.66 -3,6.66 -6.66,6.66l-2.91 0c-3.66,0 -6.66,-3 -6.66,-6.66l0 -27.43c0,-3.66 3,-6.66 6.66,-6.66l2.91 0c3.66,0 6.66,3 6.66,6.66l0 27.43z"/>
     <path class="fil0" d="M136.64 128.56c0,6.29 -5.09,11.38 -11.38,11.38 -6.29,0 -11.38,-5.09 -11.38,-11.38l11.23 -20.49 11.54 20.49z"/>
     <path class="fil0" d="M148.89 147.18c-0.04,3.65 -3.02,6.58 -6.67,6.54 -3.65,-0.03 -6.58,-3.02 -6.54,-6.67l6.63 -11.83 6.58 11.95z"/>
     <path class="fil0" d="M146.49 117.99c-0.02,2.18 -1.8,3.92 -3.97,3.9 -2.17,-0.02 -3.92,-1.8 -3.9,-3.97l3.96 -7.05 3.92 7.12z"/>
     <path class="fil0" d="M108.17 180.71c-0.22,-0 -0.02,-0 0.42,-0 0.44,0 -0.52,2.69 -2.14,5.97l-0.53 1.07c-1.61,3.28 -5.34,5.98 -8.28,5.98l-5.35 0 -5.34 0c-2.94,0 -6.67,-2.69 -8.29,-5.98l-0.53 -1.07c-1.62,-3.28 -2.58,-5.97 -2.13,-5.97 0.45,0 3.81,0 7.48,0l18.43 0c3.66,0 6.48,0 6.26,0l0 0z"/>
     <g>
      <path class="fil0" d="M89.87 177.82c-4.24,-0.25 -6.67,-1.61 -8.83,-5.73 -2.17,-4.12 -1.91,-5.7 0.28,-10.52l0.13 0.02c5.11,0.92 6.55,1.62 8.7,5.71 2.18,4.11 1.93,6.89 -0.27,10.52l0 0zm0 0l0 0 0 0z"/>
     </g>
     <g>
      <path class="fil0" d="M94.84 166.09c-1.89,-0.1 -2.97,-0.72 -3.94,-2.55 -0.97,-1.84 -0.85,-2.54 0.12,-4.69l0.06 0c2.28,0.41 2.92,0.72 3.87,2.54 0.97,1.83 0.86,3.07 -0.12,4.69l0.01 -0zm0 0l0 0 0 0z"/>
     </g>
     <g>
      <path class="fil0" d="M97.28 177.82c-1.93,-2.37 -2.38,-4.33 -1.25,-7.48 1.14,-3.15 2.11,-3.78 5.73,-4.96l0.05 0.08c2,3.16 2.31,4.27 1.19,7.39 -1.13,3.15 -2.73,4.37 -5.73,4.96l0 0.01zm0 0l0 0 0 0z"/>
     </g>
    </g>
   </g>
  </g>
  <polygon class="fil1" points="212.94,212.94 -0,212.94 -0,0 212.94,0 "/>
 </g>
</svg>
